<svg width="58" height="61" viewBox="0 0 58 61" fill="none" xmlns="http://www.w3.org/2000/svg">
<path d="M42.0117 19.0059H45V21.9941H42.0117V19.0059ZM42.0117 25.0117H45V28H42.0117V25.0117ZM42.0117 30.9883H45V34.0059H42.0117V30.9883ZM42.0117 36.9941H45V40.0117H42.0117V36.9941ZM42.0117 49.0059H45V51.9941H42.0117V49.0059ZM42.0117 43H45V45.9883H42.0117V43ZM17.9883 19.0059H21.0059V21.9941H17.9883V19.0059ZM17.9883 25.0117H21.0059V28H17.9883V25.0117ZM17.9883 30.9883H21.0059V34.0059H17.9883V30.9883ZM17.9883 36.9941H21.0059V40.0117H17.9883V36.9941ZM17.9883 49.0059H21.0059V51.9941H17.9883V49.0059ZM17.9883 43H21.0059V45.9883H17.9883V43ZM12.0117 19.0059H15V21.9941H12.0117V19.0059ZM12.0117 25.0117H15V28H12.0117V25.0117ZM12.0117 30.9883H15V34.0059H12.0117V30.9883ZM12.0117 36.9941H15V40.0117H12.0117V36.9941ZM12.0117 49.0059H15V51.9941H12.0117V49.0059ZM12.0117 43H15V45.9883H12.0117V43ZM23.9941 19.0059H27.0117V21.9941H23.9941V19.0059ZM23.9941 25.0117H27.0117V28H23.9941V25.0117ZM23.9941 30.9883H27.0117V34.0059H23.9941V30.9883ZM23.9941 36.9941H27.0117V40.0117H23.9941V36.9941ZM23.9941 49.0059H27.0117V51.9941H23.9941V49.0059ZM23.9941 43H27.0117V45.9883H23.9941V43ZM55.4883 58H53.9941V17.5117C53.9941 16.3594 53.623 15.2656 52.8809 14.2305C52.1387 13.1953 51.2207 12.4922 50.127 12.1211L36.0059 7.4043V2.51172C36.0059 2.25781 35.9473 2.0332 35.8301 1.83789C35.7324 1.62305 35.5859 1.44727 35.3906 1.31055C35.1953 1.1543 34.9805 1.05664 34.7461 1.01758C34.5312 0.978516 34.3066 0.998047 34.0723 1.07617L6.94336 9.19141C5.83008 9.52344 4.89258 10.207 4.13086 11.2422C3.36914 12.2578 2.98828 13.3418 2.98828 14.4941V58H1.49414C1.08398 58 0.732422 58.1465 0.439453 58.4395C0.146484 58.7324 0 59.084 0 59.4941C0 59.9043 0.146484 60.2559 0.439453 60.5488C0.732422 60.8418 1.08398 60.9883 1.49414 60.9883H55.4883C55.918 60.9883 56.2793 60.8418 56.5723 60.5488C56.8652 60.2559 57.0117 59.9043 57.0117 59.4941C57.0117 59.084 56.8652 58.7324 56.5723 58.4395C56.2793 58.1465 55.918 58 55.4883 58ZM49.1895 14.9629C49.6582 15.1387 50.0781 15.4805 50.4492 15.9883C50.8203 16.4961 51.0059 17.0039 51.0059 17.5117V58H36.0059V10.5684L49.1895 14.9629ZM6.00586 14.4941C6.00586 14.0059 6.18164 13.5176 6.5332 13.0293C6.9043 12.541 7.32422 12.2187 7.79297 12.0625L32.9883 4.50391V58H6.00586V14.4941Z" fill="black"/>
</svg>
