<svg width="52" height="61" viewBox="0 0 52 61" fill="none" xmlns="http://www.w3.org/2000/svg">
<path d="M25.0117 30.9883H28V34.0059H25.0117V30.9883ZM30.9883 30.9883H34.0059V34.0059H30.9883V30.9883ZM36.9941 30.9883H40.0117V34.0059H36.9941V30.9883ZM43 30.9883H45.9883V34.0059H43V30.9883ZM25.0117 40.0117H28V43H25.0117V40.0117ZM30.9883 40.0117H34.0059V43H30.9883V40.0117ZM36.9941 40.0117H40.0117V43H36.9941V40.0117ZM43 40.0117H45.9883V43H43V40.0117ZM25.0117 49.0059H28V51.9941H25.0117V49.0059ZM30.9883 49.0059H34.0059V51.9941H30.9883V49.0059ZM36.9941 49.0059H40.0117V51.9941H36.9941V49.0059ZM43 49.0059H45.9883V51.9941H43V49.0059ZM50.5 21.9941H49.0059V14.4941C49.0059 14.2988 48.9668 14.1133 48.8887 13.9375C48.8105 13.7422 48.7031 13.5762 48.5664 13.4395L43 7.87305V2.51172C43 2.08203 42.8535 1.7207 42.5605 1.42773C42.2676 1.13477 41.916 0.988281 41.5059 0.988281C41.0957 0.988281 40.7441 1.13477 40.4512 1.42773C40.1582 1.7207 40.0117 2.08203 40.0117 2.51172V7.87305L34.4453 13.4395C34.3086 13.5762 34.2012 13.7422 34.123 13.9375C34.0449 14.1133 34.0059 14.2988 34.0059 14.4941V15.9883H28V8.48828C28 8.07812 27.8535 7.72656 27.5605 7.43359C27.2676 7.14062 26.916 6.99414 26.5059 6.99414H2.51172C2.08203 6.99414 1.7207 7.14062 1.42773 7.43359C1.13477 7.72656 0.988281 8.07812 0.988281 8.48828V59.4941C0.988281 59.9043 1.13477 60.2559 1.42773 60.5488C1.7207 60.8418 2.08203 60.9883 2.51172 60.9883H50.5C50.9102 60.9883 51.2617 60.8418 51.5547 60.5488C51.8477 60.2559 51.9941 59.9043 51.9941 59.4941V23.4883C51.9941 23.0781 51.8477 22.7266 51.5547 22.4336C51.2617 22.1406 50.9102 21.9941 50.5 21.9941ZM36.9941 15.1094L41.5059 10.627L45.9883 15.1094V21.9941H43V17.5117C43 17.082 42.8535 16.7207 42.5605 16.4277C42.2676 16.1348 41.916 15.9883 41.5059 15.9883H36.9941V15.1094ZM40.0117 19.0059V21.9941H28V19.0059H40.0117ZM19.0059 23.4883V58H4.00586V10.0117H25.0117V21.9941H20.5C20.0898 21.9941 19.7383 22.1406 19.4453 22.4336C19.1523 22.7266 19.0059 23.0781 19.0059 23.4883ZM49.0059 58H21.9941V25.0117H49.0059V58ZM19.0059 13H21.9941V19.0059H19.0059V13ZM13 13H15.9883V19.0059H13V13ZM6.99414 13H10.0117V19.0059H6.99414V13ZM6.99414 21.9941H10.0117V28H6.99414V21.9941ZM13 21.9941H15.9883V28H13V21.9941ZM6.99414 30.9883H10.0117V36.9941H6.99414V30.9883ZM13 30.9883H15.9883V36.9941H13V30.9883ZM6.99414 40.0117H10.0117V45.9883H6.99414V40.0117ZM13 40.0117H15.9883V45.9883H13V40.0117ZM6.99414 49.0059H10.0117V55.0117H6.99414V49.0059ZM13 49.0059H15.9883V55.0117H13V49.0059Z" fill="black"/>
</svg>
