<svg width="58" height="52" viewBox="0 0 58 52" fill="none" xmlns="http://www.w3.org/2000/svg">
<path d="M52.5 7H51.0059V5.50586C51.0059 4.25586 50.5664 3.19141 49.6875 2.3125C48.8086 1.43359 47.7441 0.994141 46.4941 0.994141H4.51172C3.26172 0.994141 2.19727 1.43359 1.31836 2.3125C0.439453 3.19141 0 4.25586 0 5.50586V11.5117C0 12.7422 0.439453 13.7969 1.31836 14.6758C2.19727 15.5547 3.26172 15.9941 4.51172 15.9941H46.4941C47.7441 15.9941 48.8086 15.5547 49.6875 14.6758C50.5664 13.7969 51.0059 12.7422 51.0059 11.5117V9.98828H52.5C52.9102 9.98828 53.2617 10.1348 53.5547 10.4277C53.8477 10.7207 53.9941 11.082 53.9941 11.5117V17.4883C53.9941 17.918 53.8477 18.2793 53.5547 18.5723C53.2617 18.8652 52.9102 19.0117 52.5 19.0117H28.5059C27.2559 19.0117 26.1914 19.4512 25.3125 20.3301C24.4336 21.209 23.9941 22.2637 23.9941 23.4941V28.2695C23.1348 28.5625 22.4219 29.0996 21.8555 29.8809C21.2891 30.6426 21.0059 31.5117 21.0059 32.4883V47.4883C21.0059 48.7383 21.4453 49.8027 22.3242 50.6816C23.2031 51.5605 24.2578 52 25.4883 52C26.7383 52 27.8027 51.5605 28.6816 50.6816C29.5605 49.8027 30 48.7383 30 47.4883V32.4883C30 31.5117 29.7168 30.6426 29.1504 29.8809C28.584 29.0996 27.8711 28.5625 27.0117 28.2695V23.4941C27.0117 23.084 27.1582 22.7324 27.4512 22.4395C27.7441 22.1465 28.0957 22 28.5059 22H52.5C53.75 22 54.8145 21.5605 55.6934 20.6816C56.5723 19.8027 57.0117 18.7383 57.0117 17.4883V11.5117C57.0117 10.2617 56.5723 9.19727 55.6934 8.31836C54.8145 7.43945 53.75 7 52.5 7ZM47.9883 11.5117C47.9883 11.9219 47.8418 12.2734 47.5488 12.5664C47.2559 12.8594 46.9043 13.0059 46.4941 13.0059H4.51172C4.08203 13.0059 3.7207 12.8594 3.42773 12.5664C3.13477 12.2734 2.98828 11.9219 2.98828 11.5117V5.50586C2.98828 5.0957 3.13477 4.74414 3.42773 4.45117C3.7207 4.1582 4.08203 4.01172 4.51172 4.01172H46.4941C46.9043 4.01172 47.2559 4.1582 47.5488 4.45117C47.8418 4.74414 47.9883 5.0957 47.9883 5.50586V11.5117ZM27.0117 47.4883C27.0117 47.918 26.8652 48.2793 26.5723 48.5723C26.2793 48.8652 25.918 49.0117 25.4883 49.0117C25.0781 49.0117 24.7266 48.8652 24.4336 48.5723C24.1406 48.2793 23.9941 47.918 23.9941 47.4883V32.4883C23.9941 32.0781 24.1406 31.7266 24.4336 31.4336C24.7266 31.1406 25.0781 30.9941 25.4883 30.9941C25.918 30.9941 26.2793 31.1406 26.5723 31.4336C26.8652 31.7266 27.0117 32.0781 27.0117 32.4883V47.4883Z" fill="black"/>
</svg>
